<?xml version="1.0" encoding="UTF-8" standalone="no"?><!DOCTYPE svg PUBLIC "-//W3C//DTD SVG 1.1//EN" "http://www.w3.org/Graphics/SVG/1.1/DTD/svg11.dtd"><svg width="100%" height="100%" viewBox="0 0 1487 1378" version="1.1" xmlns="http://www.w3.org/2000/svg" xmlns:xlink="http://www.w3.org/1999/xlink" xml:space="preserve" xmlns:serif="http://www.serif.com/" style="fill-rule:evenodd;clip-rule:evenodd;stroke-linecap:round;stroke-linejoin:round;stroke-miterlimit:1.5;"><g><path d="M816.083,73.014c-0,-0 10.094,-34.37 92.946,17.618c45.872,28.784 35.504,30.783 51.328,34.507c15.824,3.723 56.003,-10.371 90.457,-15.868c33.374,-5.324 87.069,-8.101 95.24,-11.593c14.039,-6 27.059,-44.326 38.626,-57.242c17.147,-19.147 52.745,-38.473 69.81,-40.025c16.449,-1.495 23.27,43.748 23.27,43.748c0,-0 4.654,33.509 1.862,53.986c-2.793,20.478 -12.101,71.672 0.93,84.703c13.032,13.031 24.852,24.263 30.717,40.025c7.446,20.012 2.692,75.519 9.673,91.963c4.371,10.297 39.649,40.436 79.145,96.763c40.951,58.403 55.872,99.353 63.226,124.096c14.672,49.37 27.13,138.111 20.614,174.413c-6.515,36.301 -19.017,50.942 -32.107,140.125c-2.087,14.22 13.183,79.858 11.012,111.219c-1.857,26.808 -13.804,48.093 -24.043,76.948c-10.239,28.855 -53.682,256.425 -26.063,268.071c35.162,14.826 34.258,7.59 41.678,14.706c7.601,7.292 2.07,19.733 3.932,29.041c1.861,9.308 -61.278,8.843 -90.288,10.239c-27.899,1.343 -60.502,-4.344 -83.772,-1.861c-19.326,2.061 -22.34,7.832 -55.848,16.754c-33.509,8.922 -76.326,-15.279 -112.627,-27.379c-36.302,-12.101 -112.627,-32.579 -134.036,-33.509c-21.408,-0.931 -115.419,-35.371 -157.305,-43.748c-41.886,-8.377 -187.017,3.195 -281.102,-33.509c-51.052,-19.915 -444.923,-54.917 -483.086,-81.91c-38.163,-26.994 -57.709,-50.264 -59.571,-69.81c-1.862,-19.547 3.875,-49.204 26.993,-53.056c20.733,-3.454 40.887,2.937 61.365,28.999c20.477,26.063 11.708,20.258 48.078,29.484c1.416,0.359 59.426,10.647 123.797,15.723c19.684,1.553 117.648,14.546 152.088,17.339c34.44,2.792 46.306,6.515 62.13,-8.378c15.823,-14.892 13.289,-14.288 10.496,-51.52c-2.792,-37.232 16.43,-92.001 38.163,-147.066c33.137,-83.959 57.445,-159.726 161.269,-245.732c40.958,-33.929 192.139,-140.05 222.784,-192.676c18.854,-32.377 -9.694,-58.531 -38.915,-123.081c-26.528,-58.602 -2.04,-112.411 -0.178,-121.719c1.861,-9.308 -0.049,-21.677 -0.049,-21.677c-0,0 -0.382,-13.725 -8.388,-25.544c-8.006,-11.819 -38.303,-73.033 -41.557,-92.264c-1.602,-9.465 -2.694,-21.303 -2.694,-21.303"/><g><path d="M1123.01,266.575c0.594,-5.33 3.599,-9.866 7.022,-13.896c4.067,-4.787 13.081,-10.599 17.69,-13.111c0.561,-0.305 15.089,-6.611 27.258,-1.731c4.244,1.702 10.033,3.546 12.371,5.546c1.264,1.08 1.035,4.967 1.035,7.489c-0,2.736 -0.35,6.014 -1.035,8.925c-0.833,3.539 -1.55,8.78 -3.965,12.31c-3.203,4.682 -10.918,12.79 -15.25,15.783c-10.673,7.372 -20.941,7.367 -26.804,5.379c-5.549,-1.88 -12.999,-4.38 -15.897,-9.167c-2.898,-4.787 -3.035,-12.056 -2.425,-17.527Z" style="fill:none;"/><clipPath id="_clip1"><path d="M1123.01,266.575c0.594,-5.33 3.599,-9.866 7.022,-13.896c4.067,-4.787 13.081,-10.599 17.69,-13.111c0.561,-0.305 15.089,-6.611 27.258,-1.731c4.244,1.702 10.033,3.546 12.371,5.546c1.264,1.08 1.035,4.967 1.035,7.489c-0,2.736 -0.35,6.014 -1.035,8.925c-0.833,3.539 -1.55,8.78 -3.965,12.31c-3.203,4.682 -10.918,12.79 -15.25,15.783c-10.673,7.372 -20.941,7.367 -26.804,5.379c-5.549,-1.88 -12.999,-4.38 -15.897,-9.167c-2.898,-4.787 -3.035,-12.056 -2.425,-17.527Z"/></clipPath><g clip-path="url(#_clip1)"><path d="M1143.94,225.269c21.773,-6.087 43.753,4.362 49.053,23.32c5.3,18.957 -8.074,39.29 -29.847,45.377c-21.774,6.087 -43.754,-4.362 -49.053,-23.319c-5.3,-18.958 8.074,-39.291 29.847,-45.378Z" style="fill:#e6e6e6;"/><path d="M1143.64,225.354c23.842,-6.666 47.501,3.314 52.801,22.271c5.3,18.957 -9.754,39.76 -33.596,46.425c-23.842,6.665 -47.501,-3.314 -52.801,-22.271c-5.3,-18.958 9.754,-39.76 33.596,-46.425Z" style="fill:#f7c303;"/><path d="M1152.73,231.493c7.595,-1.266 15.632,8.931 17.936,22.757c2.305,13.825 -1.991,26.078 -9.586,27.344c-7.595,1.266 -15.632,-8.931 -17.936,-22.757c-2.305,-13.826 1.991,-26.079 9.586,-27.344Z"/></g><path d="M1123.01,266.575c0.594,-5.33 3.599,-9.866 7.022,-13.896c4.067,-4.787 13.081,-10.599 17.69,-13.111c0.561,-0.305 15.089,-6.611 27.258,-1.731c4.244,1.702 10.033,3.546 12.371,5.546c1.264,1.08 1.035,4.967 1.035,7.489c-0,2.736 -0.35,6.014 -1.035,8.925c-0.833,3.539 -1.55,8.78 -3.965,12.31c-3.203,4.682 -10.918,12.79 -15.25,15.783c-10.673,7.372 -20.941,7.367 -26.804,5.379c-5.549,-1.88 -12.999,-4.38 -15.897,-9.167c-2.898,-4.787 -3.035,-12.056 -2.425,-17.527Z" style="fill:none;stroke:#01438c;stroke-width:0.75px;"/><path d="M942.499,276.72c12.012,-3.545 20.076,-6.861 22.843,-7.014c10.495,-0.581 18.467,2.372 20.739,3.373c10.246,4.513 17.405,8.938 19.918,12.737c2.83,4.281 9.096,9.608 9.415,15.051c0,-0 -0.064,6.289 -3.909,9.674c-0.73,0.642 -5.798,4.543 -8.215,6.372c-4.274,3.234 -16.116,4.143 -21.988,4.143c-5.872,0 -17.945,-3.586 -26.235,-8.631c-5.714,-3.478 -10.244,-7.826 -11.119,-12.43c-0.874,-4.603 -4.616,-22.34 -1.449,-23.275Z" style="fill:#0077fc;"/><clipPath id="_clip2"><path d="M942.499,276.72c12.012,-3.545 20.076,-6.861 22.843,-7.014c10.495,-0.581 18.467,2.372 20.739,3.373c10.246,4.513 17.405,8.938 19.918,12.737c2.83,4.281 9.096,9.608 9.415,15.051c0,-0 -0.064,6.289 -3.909,9.674c-0.73,0.642 -5.798,4.543 -8.215,6.372c-4.274,3.234 -16.116,4.143 -21.988,4.143c-5.872,0 -17.945,-3.586 -26.235,-8.631c-5.714,-3.478 -10.244,-7.826 -11.119,-12.43c-0.874,-4.603 -4.616,-22.34 -1.449,-23.275Z"/></clipPath><g clip-path="url(#_clip2)"><ellipse cx="975.983" cy="294.301" rx="43.823" ry="36.21" style="fill:#e6e6e6;"/><ellipse cx="979.789" cy="291.958" rx="47.005" ry="36.21" style="fill:#f7c303;"/><path d="M977.947,261.67c8.111,-0.616 15.478,9.176 16.44,21.852c0.963,12.676 -4.84,23.468 -12.951,24.084c-8.111,0.616 -15.477,-9.176 -16.44,-21.852c-0.962,-12.676 4.841,-23.468 12.951,-24.084Z"/></g><path d="M942.499,276.72c12.012,-3.545 20.076,-6.861 22.843,-7.014c10.495,-0.581 18.467,2.372 20.739,3.373c10.246,4.513 17.405,8.938 19.918,12.737c2.83,4.281 9.096,9.608 9.415,15.051c0,-0 -0.064,6.289 -3.909,9.674c-0.73,0.642 -5.798,4.543 -8.215,6.372c-4.274,3.234 -16.116,4.143 -21.988,4.143c-5.872,0 -17.945,-3.586 -26.235,-8.631c-5.714,-3.478 -10.244,-7.826 -11.119,-12.43c-0.874,-4.603 -4.616,-22.34 -1.449,-23.275Z" style="fill:none;stroke:#01438c;stroke-width:0.75px;"/></g></g></svg>