<?xml version="1.0" encoding="UTF-8" standalone="no"?><!DOCTYPE svg PUBLIC "-//W3C//DTD SVG 1.1//EN" "http://www.w3.org/Graphics/SVG/1.1/DTD/svg11.dtd"><svg width="100%" height="100%" viewBox="0 0 1487 1378" version="1.1" xmlns="http://www.w3.org/2000/svg" xmlns:xlink="http://www.w3.org/1999/xlink" xml:space="preserve" xmlns:serif="http://www.serif.com/" style="fill-rule:evenodd;clip-rule:evenodd;stroke-linecap:round;stroke-linejoin:round;stroke-miterlimit:1.5;"><g><path d="M816.083,73.014c-0,-0 10.094,-34.37 92.946,17.618c45.872,28.784 35.504,30.783 51.328,34.507c15.824,3.723 56.003,-10.371 90.457,-15.868c33.374,-5.324 87.069,-8.101 95.24,-11.593c14.039,-6 27.059,-44.326 38.626,-57.242c17.147,-19.147 52.745,-38.473 69.81,-40.025c16.449,-1.495 23.27,43.748 23.27,43.748c0,-0 4.654,33.509 1.862,53.986c-2.793,20.478 -12.101,71.672 0.93,84.703c13.032,13.031 24.852,24.263 30.717,40.025c7.446,20.012 2.692,75.519 9.673,91.963c4.371,10.297 39.649,40.436 79.145,96.763c40.951,58.403 55.872,99.353 63.226,124.096c14.672,49.37 27.13,138.111 20.614,174.413c-6.515,36.301 -19.017,50.942 -32.107,140.125c-2.087,14.22 13.183,79.858 11.012,111.219c-1.857,26.808 -13.804,48.093 -24.043,76.948c-10.239,28.855 -53.682,256.425 -26.063,268.071c35.162,14.826 34.258,7.59 41.678,14.706c7.601,7.292 2.07,19.733 3.932,29.041c1.861,9.308 -61.278,8.843 -90.288,10.239c-27.899,1.343 -60.502,-4.344 -83.772,-1.861c-19.326,2.061 -22.34,7.832 -55.848,16.754c-33.509,8.922 -76.326,-15.279 -112.627,-27.379c-36.302,-12.101 -112.627,-32.579 -134.036,-33.509c-21.408,-0.931 -115.419,-35.371 -157.305,-43.748c-41.886,-8.377 -187.017,3.195 -281.102,-33.509c-51.052,-19.915 -444.923,-54.917 -483.086,-81.91c-38.163,-26.994 -57.709,-50.264 -59.571,-69.81c-1.862,-19.547 3.875,-49.204 26.993,-53.056c20.733,-3.454 40.887,2.937 61.365,28.999c20.477,26.063 11.708,20.258 48.078,29.484c1.416,0.359 59.426,10.647 123.797,15.723c19.684,1.553 117.648,14.546 152.088,17.339c34.44,2.792 46.306,6.515 62.13,-8.378c15.823,-14.892 13.289,-14.288 10.496,-51.52c-2.792,-37.232 16.43,-92.001 38.163,-147.066c33.137,-83.959 57.445,-159.726 161.269,-245.732c40.958,-33.929 192.139,-140.05 222.784,-192.676c18.854,-32.377 -9.694,-58.531 -38.915,-123.081c-26.528,-58.602 -2.04,-112.411 -0.178,-121.719c1.861,-9.308 -0.049,-21.677 -0.049,-21.677c-0,0 -0.382,-13.725 -8.388,-25.544c-8.006,-11.819 -38.303,-73.033 -41.557,-92.264c-1.602,-9.465 -2.694,-21.303 -2.694,-21.303" style="stroke:#000;stroke-width:0.75px;"/></g></svg>